<svg width="365" height="327" viewBox="0 0 365 327" fill="none" xmlns="http://www.w3.org/2000/svg">
<path d="M93.8362 48.2032H291.86V327H93.8362V48.2032Z" fill="url(#paint0_linear_35_31)"/>
<path fill-rule="evenodd" clip-rule="evenodd" d="M75.2435 157.637C75.6078 199.254 109.457 232.878 151.159 232.878C109.242 232.878 75.2588 266.85 75.2405 308.763C75.2224 267.076 41.6053 233.245 0 232.881C8.60845e-06 232.879 1.72929e-05 232.877 2.60535e-05 232.875C41.3906 232.512 74.8753 199.028 75.2376 157.637C75.2395 157.637 75.2415 157.637 75.2435 157.637Z" fill="url(#paint1_linear_35_31)"/>
<path fill-rule="evenodd" clip-rule="evenodd" d="M75.2435 157.637C75.6078 199.254 109.457 232.878 151.159 232.878C109.242 232.878 75.2588 266.85 75.2405 308.763C75.2224 267.076 41.6053 233.245 0 232.881C8.60845e-06 232.879 1.72929e-05 232.877 2.60535e-05 232.875C41.3906 232.512 74.8753 199.028 75.2376 157.637C75.2395 157.637 75.2415 157.637 75.2435 157.637Z" fill="#F1F1F1"/>
<path fill-rule="evenodd" clip-rule="evenodd" d="M256.685 169.762C286.29 169.503 310.24 145.553 310.499 115.948C310.5 115.948 310.502 115.948 310.503 115.948C310.764 145.708 334.964 169.754 364.782 169.765C334.811 169.775 310.516 194.068 310.501 224.038C310.486 194.223 286.442 170.027 256.685 169.767C256.685 169.765 256.685 169.764 256.685 169.762Z" fill="url(#paint2_linear_35_31)"/>
<path fill-rule="evenodd" clip-rule="evenodd" d="M256.685 169.762C286.29 169.503 310.24 145.553 310.499 115.948C310.5 115.948 310.502 115.948 310.503 115.948C310.764 145.708 334.964 169.754 364.782 169.765C334.811 169.775 310.516 194.068 310.501 224.038C310.486 194.223 286.442 170.027 256.685 169.767C256.685 169.765 256.685 169.764 256.685 169.762Z" fill="#F1F1F1"/>
<path fill-rule="evenodd" clip-rule="evenodd" d="M173.786 0C173.964 19.7161 190.583 35.6466 211.06 35.6537C190.481 35.6609 173.8 51.7495 173.784 71.6006C173.768 51.8523 157.259 35.8277 136.828 35.6551C136.828 35.6542 136.828 35.6533 136.828 35.6523C157.158 35.4806 173.605 19.6135 173.783 1.2222e-05C173.784 8.11271e-06 173.785 4.0387e-06 173.786 0Z" fill="url(#paint3_linear_35_31)"/>
<path fill-rule="evenodd" clip-rule="evenodd" d="M173.786 0C173.964 19.7161 190.583 35.6466 211.06 35.6537C190.481 35.6609 173.8 51.7495 173.784 71.6006C173.768 51.8523 157.259 35.8277 136.828 35.6551C136.828 35.6542 136.828 35.6533 136.828 35.6523C157.158 35.4806 173.605 19.6135 173.783 1.2222e-05C173.784 8.11271e-06 173.785 4.0387e-06 173.786 0Z" fill="#F1F1F1"/>
<defs>
<linearGradient id="paint0_linear_35_31" x1="192.848" y1="48.2032" x2="192.848" y2="327" gradientUnits="userSpaceOnUse">
<stop stop-color="#E282D9"/>
<stop offset="1" stop-color="#6D5EC9"/>
</linearGradient>
<linearGradient id="paint1_linear_35_31" x1="75.5798" y1="157.637" x2="75.5798" y2="308.763" gradientUnits="userSpaceOnUse">
<stop stop-color="#E282D9"/>
<stop offset="1" stop-color="#6D5EC9"/>
</linearGradient>
<linearGradient id="paint2_linear_35_31" x1="310.734" y1="115.948" x2="310.734" y2="224.038" gradientUnits="userSpaceOnUse">
<stop stop-color="#E282D9"/>
<stop offset="1" stop-color="#6D5EC9"/>
</linearGradient>
<linearGradient id="paint3_linear_35_31" x1="173.944" y1="0" x2="173.944" y2="71.6006" gradientUnits="userSpaceOnUse">
<stop stop-color="#E282D9"/>
<stop offset="1" stop-color="#6D5EC9"/>
</linearGradient>
</defs>
</svg>
