<svg width="500" height="500" viewBox="0 0 500 500" fill="none" xmlns="http://www.w3.org/2000/svg">
<rect width="500" height="500" rx="60" fill="#212121"/>
<path d="M153.416 116.203H351.44V395H153.416V116.203Z" fill="url(#paint0_linear_29_52)"/>
<path fill-rule="evenodd" clip-rule="evenodd" d="M134.823 225.637C135.188 267.254 169.037 300.878 210.739 300.878C168.822 300.878 134.839 334.85 134.82 376.763C134.802 335.076 101.185 301.245 59.58 300.881C59.58 300.879 59.58 300.877 59.58 300.875C100.971 300.512 134.455 267.028 134.818 225.637C134.819 225.637 134.821 225.637 134.823 225.637Z" fill="url(#paint1_linear_29_52)"/>
<path fill-rule="evenodd" clip-rule="evenodd" d="M134.823 225.637C135.188 267.254 169.037 300.878 210.739 300.878C168.822 300.878 134.839 334.85 134.82 376.763C134.802 335.076 101.185 301.245 59.58 300.881C59.58 300.879 59.58 300.877 59.58 300.875C100.971 300.512 134.455 267.028 134.818 225.637C134.819 225.637 134.821 225.637 134.823 225.637Z" fill="#F1F1F1"/>
<path fill-rule="evenodd" clip-rule="evenodd" d="M316.265 237.762C345.87 237.503 369.82 213.553 370.079 183.948C370.08 183.948 370.082 183.948 370.083 183.948C370.344 213.708 394.544 237.754 424.362 237.765C394.391 237.775 370.096 262.068 370.081 292.038C370.066 262.223 346.022 238.027 316.265 237.767C316.265 237.765 316.265 237.764 316.265 237.762Z" fill="url(#paint2_linear_29_52)"/>
<path fill-rule="evenodd" clip-rule="evenodd" d="M316.265 237.762C345.87 237.503 369.82 213.553 370.079 183.948C370.08 183.948 370.082 183.948 370.083 183.948C370.344 213.708 394.544 237.754 424.362 237.765C394.391 237.775 370.096 262.068 370.081 292.038C370.066 262.223 346.022 238.027 316.265 237.767C316.265 237.765 316.265 237.764 316.265 237.762Z" fill="#F1F1F1"/>
<path fill-rule="evenodd" clip-rule="evenodd" d="M233.366 68C233.544 87.7161 250.163 103.647 270.64 103.654C250.061 103.661 233.38 119.749 233.364 139.601C233.348 119.852 216.839 103.828 196.408 103.655C196.408 103.654 196.408 103.653 196.408 103.652C216.738 103.481 233.185 87.6135 233.363 68C233.364 68 233.365 68 233.366 68Z" fill="url(#paint3_linear_29_52)"/>
<path fill-rule="evenodd" clip-rule="evenodd" d="M233.366 68C233.544 87.7161 250.163 103.647 270.64 103.654C250.061 103.661 233.38 119.749 233.364 139.601C233.348 119.852 216.839 103.828 196.408 103.655C196.408 103.654 196.408 103.653 196.408 103.652C216.738 103.481 233.185 87.6135 233.363 68C233.364 68 233.365 68 233.366 68Z" fill="#F1F1F1"/>
<defs>
<linearGradient id="paint0_linear_29_52" x1="252.428" y1="116.203" x2="252.428" y2="395" gradientUnits="userSpaceOnUse">
<stop stop-color="#E282D9"/>
<stop offset="1" stop-color="#6D5EC9"/>
</linearGradient>
<linearGradient id="paint1_linear_29_52" x1="135.16" y1="225.637" x2="135.16" y2="376.763" gradientUnits="userSpaceOnUse">
<stop stop-color="#E282D9"/>
<stop offset="1" stop-color="#6D5EC9"/>
</linearGradient>
<linearGradient id="paint2_linear_29_52" x1="370.314" y1="183.948" x2="370.314" y2="292.038" gradientUnits="userSpaceOnUse">
<stop stop-color="#E282D9"/>
<stop offset="1" stop-color="#6D5EC9"/>
</linearGradient>
<linearGradient id="paint3_linear_29_52" x1="233.524" y1="68" x2="233.524" y2="139.601" gradientUnits="userSpaceOnUse">
<stop stop-color="#E282D9"/>
<stop offset="1" stop-color="#6D5EC9"/>
</linearGradient>
</defs>
</svg>
